<svg width="41" height="40" viewBox="0 0 41 40" fill="none" xmlns="http://www.w3.org/2000/svg">
<rect x="0.796875" width="40.0002" height="40" rx="5.92594" fill="#171618"/>
<path d="M15.0082 21.0547L16.0175 23.0732C16.359 23.7563 16.5299 24.0979 16.758 24.3938C16.9605 24.6565 17.1959 24.8919 17.4586 25.0944C17.7545 25.3226 18.0961 25.4934 18.7792 25.8349L20.7977 26.8442L18.7792 27.8534C18.0961 28.1949 17.7545 28.3658 17.4586 28.5939C17.1959 28.7964 16.9605 29.0318 16.758 29.2945C16.5299 29.5904 16.359 29.932 16.0175 30.6151L15.0082 32.6336L13.999 30.6151C13.6574 29.932 13.4866 29.5904 13.2585 29.2945C13.056 29.0318 12.8206 28.7964 12.5579 28.5939C12.2619 28.3658 11.9204 28.1949 11.2372 27.8534L9.21875 26.8442L11.2372 25.8349C11.9204 25.4934 12.2619 25.3226 12.5579 25.0944C12.8206 24.8919 13.056 24.6565 13.2585 24.3938C13.4866 24.0979 13.6574 23.7563 13.999 23.0732L15.0082 21.0547Z" stroke="white" stroke-width="1.7284" stroke-linecap="round" stroke-linejoin="round"/>
<path d="M25.5333 7.37109L27.0398 11.288C27.4003 12.2252 27.5806 12.6938 27.8609 13.088C28.1093 13.4374 28.4144 13.7425 28.7638 13.991C29.158 14.2712 29.6266 14.4515 30.5638 14.812L34.4807 16.3185L30.5638 17.8249C29.6266 18.1854 29.158 18.3657 28.7638 18.646C28.4144 18.8944 28.1093 19.1995 27.8609 19.5489C27.5806 19.9431 27.4003 20.4117 27.0399 21.3489L25.5333 25.2658L24.0269 21.3489C23.6664 20.4117 23.4861 19.9431 23.2058 19.5489C22.9574 19.1995 22.6522 18.8944 22.3028 18.646C21.9087 18.3657 21.4401 18.1854 20.5029 17.8249L16.5859 16.3185L20.5029 14.812C21.4401 14.4515 21.9087 14.2712 22.3028 13.991C22.6522 13.7425 22.9574 13.4374 23.2058 13.088C23.4861 12.6938 23.6664 12.2252 24.0269 11.288L25.5333 7.37109Z" stroke="white" stroke-width="1.7284" stroke-linecap="round" stroke-linejoin="round"/>
</svg>
